<svg width="25" height="25" viewBox="0 0 25 25" fill="none" xmlns="http://www.w3.org/2000/svg">
<path d="M1.75098 10.7149H1.29303C0.576478 10.7149 0 10.1179 0 9.37582V2.23397C0 1.69275 0.312483 1.20175 0.797371 0.995306C1.28226 0.788862 1.83719 0.900454 2.20893 1.28544L4.45019 3.60654C9.16976 -1.21978 16.7717 -1.20304 21.4644 3.66234C26.1785 8.54446 26.1785 16.4563 21.4644 21.3384C16.7502 26.2205 9.1105 26.2205 4.39631 21.3384C3.72286 20.641 3.72286 19.5083 4.39631 18.8109C5.06977 18.1134 6.16346 18.1134 6.83692 18.8109C10.2042 22.2981 15.6619 22.2981 19.0291 18.8109C22.3964 15.3236 22.3964 9.67153 19.0291 6.1843C15.678 2.71381 10.2635 2.69707 6.89079 6.12851L9.10511 8.42729C9.47686 8.81228 9.58461 9.38697 9.38527 9.88914C9.18593 10.3913 8.71182 10.7149 8.18921 10.7149H1.75098Z" fill="#7A4B14"/>
</svg>
